<svg width="140" height="53" viewBox="0 0 140 53" fill="#18325C" xmlns="http://www.w3.org/2000/svg">
<g clip-path="url(#clip0_2769_691)">
<path d="M40.7299 32.4195L40.8613 34.3478C40.8613 34.6138 40.6642 34.8798 40.4015 34.9463C39.6131 35.0793 38.4964 35.2788 37.8394 35.2788C34.4234 35.2788 33.3723 33.9489 33.3723 29.5601V22.9105H32.0584C31.7299 22.9105 31.4672 22.6445 31.4672 22.312V20.3171C31.4672 19.9847 31.7299 19.7187 32.0584 19.7187H33.3723V17.3913C33.3723 17.1253 33.5694 16.9258 33.8321 16.8593L36.1314 16.3274C36.3285 16.2609 36.4599 16.3274 36.5912 16.4604C36.7226 16.5934 36.7883 16.7263 36.7883 16.9258V19.8517H40.2701C40.5985 19.8517 40.8613 20.1177 40.8613 20.4501V22.445C40.8613 22.7775 40.5985 23.0435 40.2701 23.0435H36.7883V29.2276C36.7883 31.3555 36.854 32.087 38.365 32.087C38.8905 32.087 39.7445 32.0205 40.2044 32.0205C40.4672 31.8875 40.7299 32.1535 40.7299 32.4195ZM29.9562 27.2992C29.9562 32.8184 27.9197 35.2788 23.2555 35.2788C18.5912 35.2788 16.5547 32.8184 16.5547 27.2992C16.5547 21.913 18.6569 19.4527 23.2555 19.4527C27.854 19.4527 29.9562 21.913 29.9562 27.2992ZM26.5402 27.2992C26.5402 23.9079 25.6204 22.578 23.3212 22.578C20.8905 22.578 20.0365 23.7749 20.0365 27.2992C20.0365 30.4246 20.562 32.1535 23.3212 32.1535C26.0146 32.087 26.5402 30.3581 26.5402 27.2992ZM80.8686 20.0512C80.7372 19.9182 80.6059 19.8517 80.4088 19.8517H78.1752C77.9124 19.8517 77.7153 20.0512 77.6496 20.2506L74.6934 31.555H74.4964L71.5402 20.2506C71.4745 19.9847 71.2774 19.8517 71.0146 19.8517H68.781C68.5839 19.8517 68.4526 19.9182 68.3212 20.0512C68.1898 20.1841 68.1898 20.3836 68.1898 20.5166L71.4745 33.2174C71.6059 33.8159 72.1971 34.8798 73.3796 34.8798H74.0365C73.9708 35.0793 73.9051 35.3453 73.8394 35.5448V35.6113C73.6423 36.2097 73.3796 37.0742 71.8029 37.0742L68.9781 36.8747C68.8467 36.8747 68.6496 36.9412 68.5183 37.0077C68.3869 37.1407 68.3212 37.2737 68.3212 37.4732L68.3869 38.9361C68.3869 39.2021 68.584 39.4016 68.8467 39.4681C69.7007 39.6675 71.2774 39.9335 72.5912 40C72.6569 40 72.7226 40 72.7883 40C74.8905 40 76.3358 38.6036 77.0584 35.8773C77.9124 32.6854 78.9635 28.4962 79.7518 25.5038C80.0803 24.1739 80.4088 22.977 80.6059 22.1125L81 20.4501C81 20.3171 80.9343 20.1841 80.8686 20.0512ZM14.5183 34.0819C14.5839 34.2813 14.5839 34.4808 14.4526 34.6138C14.3212 34.7468 14.1898 34.8798 13.9927 34.8798H11.365C11.1679 34.8798 10.9051 34.7468 10.8394 34.5473L7.42336 26.8338C5.71533 26.8338 4.27007 26.7008 3.48175 26.7008V34.3478C3.48175 34.6803 3.21898 34.9463 2.89051 34.9463H0.591241C0.262774 34.8798 0 34.6138 0 34.3478V14.9974C0 14.7315 0.19708 14.4655 0.525548 14.399C3.54745 14.0665 5.9781 14 6.89781 14C7.22628 14 7.35767 14 7.35767 14C13.2044 14 14.3869 17.4578 14.3869 20.3836C14.3869 22.844 13.2701 24.5729 10.9051 25.7698L14.5183 34.0819ZM7.35767 17.3248H6.10949C4.72993 17.3248 3.94161 17.4578 3.54745 17.5243V23.509C4.20438 23.5755 5.51825 23.642 7.22628 23.5755C9.45986 23.5755 10.8394 22.3785 10.8394 20.4501C10.7737 18.9872 9.85402 17.3248 7.35767 17.3248ZM54.6569 24.5729V34.5473C54.6569 34.7468 54.5913 34.8798 54.4599 35.0128C54.3285 35.1458 54.1971 35.1458 54 35.1458C52.8175 34.9463 52.292 34.6138 51.7664 34.2149C51.7664 34.2149 49.2044 35.2788 46.9051 35.2788C44.146 35.2788 42.5694 33.5499 42.5694 30.4246C42.5694 27.4322 44.0146 26.1023 47.5621 25.8363L51.2409 25.5038V24.5729C51.2409 23.4425 50.584 22.7775 49.4015 22.7775C47.7591 22.7775 45.4599 22.977 44.2117 23.11C44.0803 23.11 43.8832 23.11 43.7518 22.977C43.6204 22.844 43.5548 22.711 43.5548 22.578L43.4891 20.6496C43.4891 20.3836 43.6861 20.1177 43.9489 20.0512C45.0657 19.8517 47.8248 19.4527 49.5329 19.4527C53.0146 19.4527 54.6569 21.0486 54.6569 24.5729ZM47.9562 28.3632C46.6423 28.4962 45.9854 29.0946 45.9854 30.2916C45.9854 31.023 46.1825 32.2865 47.4964 32.2865C49.073 32.2865 51.2409 31.688 51.2409 31.688V28.2302L47.9562 28.3632ZM65.6934 19.7187C64.1825 19.7852 62.7372 20.6496 61.8175 21.3146V20.3836C61.8175 20.0512 61.5548 19.7852 61.2263 19.7852H58.927C58.5985 19.7852 58.3358 20.0512 58.3358 20.3836V34.3478C58.3358 34.6803 58.5985 34.9463 58.927 34.9463H61.2263C61.5548 34.9463 61.8175 34.6803 61.8175 34.3478V24.7059C62.3431 24.2404 63.9197 23.0435 65.8248 22.9105C66.0876 22.9105 66.3504 22.6445 66.3504 22.312V20.2506C66.3504 20.1177 66.2847 19.9182 66.1533 19.8517C66.0219 19.7187 65.8248 19.6522 65.6934 19.7187Z" fill="#18325C"/>
<path d="M139.866 25.8031V25.7367H139.8C138.676 25.073 137.222 24.6747 135.769 24.6084C135.769 24.4092 135.57 23.0817 135.57 22.8826C136.958 22.4844 138.28 21.7542 139.205 20.7586L139.271 20.6923V20.6259C139.205 20.0949 139.007 19.3648 138.809 18.9665V18.9001H138.742C137.487 18.5683 135.967 18.5683 134.579 18.9001C134.513 18.701 133.984 17.5063 133.918 17.3072C135.174 16.577 136.231 15.515 136.892 14.3203L136.958 14.2539V14.1876C136.76 13.7229 136.429 13.1256 136.099 12.7273L136.033 12.6609H135.967C134.645 12.6609 133.191 13.0592 131.936 13.7229C131.804 13.5902 131.011 12.4618 130.878 12.3291C131.87 11.2671 132.663 10.006 132.993 8.67847V8.61209L132.927 8.54572C132.597 8.14747 132.134 7.61647 131.737 7.2846L131.671 7.21823H131.605C130.35 7.5501 129.028 8.28022 127.971 9.34221C127.838 9.20946 126.715 8.34659 126.583 8.21385C127.244 7.0191 127.706 5.55887 127.706 4.29775C127.706 4.23138 127.706 4.09863 127.706 4.09863L127.64 4.03225C127.244 3.70038 126.583 3.36851 126.12 3.16938H126.054H125.988C124.865 3.83313 123.807 4.89512 123.08 6.08986C122.882 6.02349 121.56 5.49249 121.428 5.35974C121.626 4.696 121.693 3.96588 121.693 3.23576C121.693 2.50564 121.626 1.84189 121.428 1.17815V1.11177H121.362C120.9 0.91265 120.239 0.713526 119.71 0.647151H119.644L119.578 0.713526C118.653 1.64277 117.86 2.97026 117.463 4.36412C117.265 4.36412 115.877 4.165 115.679 4.165C115.679 2.70476 115.282 1.24452 114.621 0.116155L114.555 0.0497809H114.489C114.027 -0.0165936 113.234 -0.0165936 112.771 0.0497809H112.705L112.639 0.116155C111.978 1.24452 111.582 2.70476 111.582 4.165C111.383 4.165 109.996 4.36412 109.797 4.36412C109.401 2.97026 108.674 1.64277 107.683 0.713526H107.484H107.418C106.89 0.779901 106.229 0.979024 105.766 1.17815H105.7V1.24452C105.502 1.90827 105.436 2.63839 105.436 3.30213C105.436 4.03225 105.568 4.696 105.7 5.42612C105.502 5.49249 104.18 6.08986 104.048 6.15624C103.321 4.89512 102.264 3.83313 101.074 3.16938L101.008 3.10301H100.942C100.479 3.30213 99.8846 3.634 99.4881 3.96588L99.422 4.03225C99.422 4.03225 99.422 4.165 99.422 4.23138C99.422 5.49249 99.8185 6.95273 100.479 8.14747C100.347 8.28022 99.3559 9.07671 99.1576 9.20946C98.1003 8.21385 96.8447 7.41735 95.523 7.08548H95.4569L95.3908 7.15185C94.9943 7.41735 94.4656 7.94835 94.1352 8.34659L94.0691 8.41297V8.47934C94.3995 9.74046 95.1265 11.068 96.1177 12.1299C95.9856 12.2627 95.1265 13.3911 94.9943 13.5902C93.7387 12.8601 92.2848 12.4618 90.9631 12.5282H90.8971L90.831 12.5946C90.5666 12.9928 90.1701 13.5902 89.9719 14.1212V14.1876L90.038 14.2539C90.6988 15.3823 91.7562 16.4443 93.0118 17.2408C92.9457 17.4399 92.417 18.6346 92.3509 18.8338C90.9631 18.5019 89.4432 18.5019 88.1876 18.8338H88.1215V18.9001C87.9232 19.3648 87.725 20.0285 87.6589 20.5595V20.6259L87.725 20.6923C88.6502 21.6215 89.9719 22.418 91.3596 22.7499C91.3596 22.949 91.1614 24.3429 91.1614 24.4756C89.7075 24.4756 88.2537 24.8738 87.1302 25.5376L87.0641 25.604V25.6703C87.0641 25.9358 86.998 26.2013 86.998 26.5332C86.998 26.8651 86.9981 27.1306 87.0641 27.3961V27.4625H87.1302C88.2537 28.1262 89.7075 28.5244 91.1614 28.5244C91.1614 28.7236 91.3596 30.1174 91.4257 30.3166C90.038 30.7148 88.7163 31.5113 87.7911 32.4405L87.725 32.5733V32.6397C87.7911 33.1707 87.9893 33.9008 88.1876 34.299V34.3654H88.2537C89.5093 34.7637 91.0292 34.6973 92.417 34.3654C92.4831 34.5645 93.0118 35.7593 93.0779 35.9584C91.8222 36.6885 90.7649 37.7505 90.104 38.9452V39.0116V39.078C90.3023 39.5426 90.6988 40.14 90.9631 40.5382L91.0292 40.6046H91.0953C92.417 40.6046 93.8709 40.2064 95.1265 39.5426C95.2586 39.6754 96.1178 40.8037 96.1838 40.9365C95.1926 41.9321 94.3995 43.2596 94.0691 44.5871V44.6534L94.1352 44.7198C94.4656 45.1181 94.9282 45.6491 95.3247 45.9146L95.3908 45.9809H95.4569C96.7125 45.6491 98.0342 44.9189 99.0916 43.9233C99.2237 44.0561 100.347 44.9189 100.545 45.0517C99.8846 46.3128 99.4881 47.7067 99.4881 49.0342V49.1669H99.6202C100.017 49.4324 100.612 49.8307 101.074 50.0298H101.14L101.206 49.9634C102.33 49.2997 103.387 48.2377 104.18 46.9766C104.378 47.0429 105.568 47.5739 105.766 47.6403C105.568 48.304 105.502 49.0342 105.502 49.6979C105.502 50.428 105.568 51.1582 105.766 51.7555V51.8219H105.832C106.295 52.021 106.956 52.2201 107.484 52.2865H107.55L107.617 52.2201C108.542 51.2909 109.335 49.9634 109.665 48.5695C109.863 48.5695 111.251 48.7687 111.449 48.835C111.449 50.2953 111.846 51.7555 112.507 52.8839V52.9503H112.573C113.035 53.0166 113.828 53.0166 114.291 52.9503H114.357L114.423 52.8839C115.084 51.7555 115.481 50.2953 115.481 48.835C115.679 48.835 117.001 48.6359 117.199 48.5695C117.595 49.9634 118.322 51.2909 119.314 52.2201L119.38 52.2865H119.446C119.974 52.2201 120.701 52.021 121.098 51.8219H121.164V51.7555C121.362 51.0918 121.428 50.428 121.428 49.6979C121.428 48.9678 121.362 48.304 121.164 47.5739C121.362 47.5076 122.618 46.9766 122.816 46.8438C123.543 48.1049 124.6 49.1669 125.79 49.8307H125.856H125.922C126.385 49.6315 127.045 49.2997 127.442 48.9678L127.508 48.9014C127.508 48.9014 127.508 48.7687 127.508 48.7023C127.508 47.4412 127.112 45.9809 126.451 44.7862C126.583 44.6535 127.64 43.857 127.772 43.7242C128.83 44.7198 130.085 45.5163 131.407 45.8482H131.473L131.539 45.7818C131.936 45.4499 132.464 44.9189 132.729 44.5871L132.795 44.5207V44.4543C132.464 43.1932 131.737 41.8657 130.746 40.8037C130.878 40.671 131.737 39.5426 131.804 39.4099C133.059 40.14 134.513 40.5382 135.835 40.4719H135.901L135.967 40.4055C136.297 40.0072 136.628 39.4099 136.826 38.8789V38.8125L136.76 38.7461C136.165 37.6178 135.042 36.5558 133.852 35.7593C133.918 35.5601 134.447 34.3654 134.513 34.1663C135.901 34.4982 137.421 34.5645 138.676 34.1663H138.742V34.0999C138.941 33.6353 139.139 32.9715 139.205 32.4405V32.3742L139.139 32.3078C138.214 31.3785 136.892 30.5821 135.57 30.1838C135.57 29.9847 135.769 28.6572 135.835 28.4581C137.289 28.4581 138.742 28.0598 139.866 27.3961L139.932 27.3297V27.2633C139.998 26.9978 139.998 26.7323 139.998 26.4005C139.866 26.3341 139.866 26.0022 139.866 25.8031ZM113.432 46.3128C102.528 46.3128 93.6065 37.4186 93.6065 26.4005C93.6065 15.4487 102.462 6.48811 113.432 6.48811C124.336 6.48811 133.257 15.3823 133.257 26.4005C133.257 37.4186 124.402 46.3128 113.432 46.3128Z" fill="#F7A81B"/>
<path d="M113.5 9.00098C103.888 9.00098 96 16.823 96 26.501C96 36.1127 103.822 44.001 113.5 44.001C123.112 44.001 131 36.179 131 26.501C131 16.823 123.178 9.00098 113.5 9.00098ZM115.754 11.7851C115.953 11.6525 116.152 11.7188 116.35 11.7188C119.864 12.5805 122.449 14.0389 124.968 16.6904C125.167 16.8892 125.233 17.0881 125.233 17.2207V17.287C125.167 17.5521 124.902 17.6847 124.636 17.751L117.278 21.3305C117.013 21.4631 116.748 21.4631 116.483 21.3305C116.284 21.198 116.152 20.9328 116.085 20.6677L115.555 12.5805C115.555 12.1828 115.621 11.9176 115.754 11.7851ZM102.098 16.823C104.617 14.1714 107.203 12.7131 110.716 11.8514C110.915 11.7851 111.18 11.7851 111.313 11.9176C111.445 12.0502 111.511 12.2491 111.511 12.6468L110.915 20.8002C110.915 21.1317 110.782 21.3305 110.517 21.4631C110.318 21.5957 110.053 21.5957 109.722 21.4631L102.364 17.8836C102.098 17.751 101.833 17.6184 101.767 17.4195C101.767 17.2207 101.9 17.0218 102.098 16.823ZM100.309 31.8703C99.9773 32.0692 99.7784 32.1355 99.5795 32.0692C99.3807 32.0029 99.3144 31.804 99.2481 31.5389C98.1875 28.0919 98.1875 25.1089 99.2481 21.5957C99.3144 21.2642 99.447 21.1317 99.6458 21.0654C99.911 20.9991 100.11 21.1317 100.375 21.3305L107.136 25.9044C107.402 26.1033 107.534 26.3021 107.534 26.5673C107.534 26.8324 107.402 27.0313 107.136 27.2302L100.309 31.8703ZM111.445 41.4821C111.312 41.6146 111.047 41.5484 110.848 41.5484C107.335 40.6866 104.75 39.2283 102.231 36.5768C102.032 36.3779 101.966 36.2453 101.966 36.0465V35.9802C102.032 35.7813 102.297 35.5824 102.496 35.5162L109.854 31.9366C110.119 31.804 110.451 31.804 110.65 31.9366C110.848 32.0692 110.981 32.268 111.047 32.5995L111.644 40.7529C111.644 41.0843 111.578 41.3495 111.445 41.4821ZM113.5 31.2737C110.848 31.2737 108.727 29.1525 108.727 26.501C108.727 24.9101 109.523 23.3855 110.848 22.5237C111.312 22.2586 111.909 22.3249 112.174 22.7889C112.439 23.2529 112.373 23.8495 111.909 24.1146C111.114 24.6449 110.65 25.5067 110.65 26.501C110.65 28.0919 111.909 29.3514 113.5 29.3514C115.091 29.3514 116.35 28.0919 116.35 26.501C116.35 25.5067 115.886 24.6449 115.091 24.1146C114.627 23.8495 114.494 23.2529 114.826 22.7889C115.091 22.3249 115.687 22.1923 116.152 22.5237C117.477 23.3855 118.273 24.9101 118.273 26.501C118.273 29.1525 116.152 31.2737 113.5 31.2737ZM124.968 36.4442C122.449 39.0957 119.93 40.554 116.35 41.4158C116.019 41.4821 115.82 41.4821 115.687 41.3495C115.489 41.2169 115.555 40.8855 115.555 40.6203L116.152 32.4669C116.218 32.1355 116.284 31.9366 116.549 31.804C116.748 31.6715 117.013 31.6715 117.345 31.804L124.703 35.3836C125.034 35.5824 125.233 35.715 125.233 35.9139C125.299 36.1127 125.1 36.2453 124.968 36.4442ZM127.42 21.1317C127.619 21.198 127.686 21.3968 127.752 21.662C128.812 25.1089 128.812 28.0919 127.752 31.6052C127.686 31.9366 127.553 32.0692 127.354 32.1355C127.155 32.2018 126.89 32.0692 126.691 31.8703L119.93 27.2964C119.665 27.0976 119.532 26.8987 119.532 26.6336C119.532 26.3684 119.665 26.1696 119.93 25.9707L126.691 21.3968C127.023 21.1317 127.288 21.0654 127.42 21.1317Z" fill="#F7A81B"/>
</g>
<defs>
<clipPath id="clip0_2769_691">
<rect width="140" height="53" fill="white"/>
</clipPath>
</defs>
</svg>
